<svg width="16" height="17" viewBox="0 0 16 17" fill="none" xmlns="http://www.w3.org/2000/svg">
<path fill-rule="evenodd" clip-rule="evenodd" d="M12 5.83337C13.1046 5.83337 14 4.93794 14 3.83337C14 2.7288 13.1046 1.83337 12 1.83337C10.8954 1.83337 10 2.7288 10 3.83337C10 4.93794 10.8954 5.83337 12 5.83337Z" stroke="#263238" stroke-linecap="round" stroke-linejoin="round"/>
<path fill-rule="evenodd" clip-rule="evenodd" d="M4 10.5C5.10457 10.5 6 9.60457 6 8.5C6 7.39543 5.10457 6.5 4 6.5C2.89543 6.5 2 7.39543 2 8.5C2 9.60457 2.89543 10.5 4 10.5Z" stroke="#263238" stroke-linecap="round" stroke-linejoin="round"/>
<path fill-rule="evenodd" clip-rule="evenodd" d="M12 15.1666C13.1046 15.1666 14 14.2712 14 13.1666C14 12.0621 13.1046 11.1666 12 11.1666C10.8954 11.1666 10 12.0621 10 13.1666C10 14.2712 10.8954 15.1666 12 15.1666Z" stroke="#263238" stroke-linecap="round" stroke-linejoin="round"/>
<path d="M5.72656 9.50671L10.2799 12.16" stroke="#263238" stroke-linecap="round" stroke-linejoin="round"/>
<path d="M10.2732 4.83997L5.72656 7.4933" stroke="#263238" stroke-linecap="round" stroke-linejoin="round"/>
</svg>
