<svg width="97" height="87" viewBox="0 0 97 87" fill="none" xmlns="http://www.w3.org/2000/svg">
<path d="M47.9019 86.5749C69.8847 86.5749 87.7053 85.3844 87.7053 83.9158C87.7053 82.4471 69.8847 81.2566 47.9019 81.2566C25.919 81.2566 8.09839 82.4471 8.09839 83.9158C8.09839 85.3844 25.919 86.5749 47.9019 86.5749Z" fill="#92E3A9"/>
<path opacity="0.5" d="M47.9019 86.5749C69.8847 86.5749 87.7053 85.3844 87.7053 83.9158C87.7053 82.4471 69.8847 81.2566 47.9019 81.2566C25.919 81.2566 8.09839 82.4471 8.09839 83.9158C8.09839 85.3844 25.919 86.5749 47.9019 86.5749Z" fill="white"/>
<path d="M38.7165 13.0396H34.9065V13.8709V18.7532V19.5846H42.9869V13.8709H38.9873L38.7165 13.0396Z" fill="#92E3A9"/>
<path d="M38.7165 25.4961H34.9065V26.3274V31.2098V32.0411H42.9869V26.3274H38.9873L38.7165 25.4961Z" fill="#92E3A9"/>
<path d="M38.7165 37.9519H34.9065V38.7832V43.6656V44.4969H42.9869V38.7832H38.9873L38.7165 37.9519Z" fill="#92E3A9"/>
<path d="M38.7165 50.4106H34.9065V51.242V56.1243V56.9556H42.9869V51.242H38.9873L38.7165 50.4106Z" fill="#92E3A9"/>
<path d="M38.7165 62.8665H34.9065V63.6978V68.5801V69.4115H42.9869V63.6978H38.9873L38.7165 62.8665Z" fill="#92E3A9"/>
<path d="M63.131 13.0393H59.3237V13.8706V18.753V19.5843H67.4014V13.8706H63.4018L63.131 13.0393Z" fill="#92E3A9"/>
<path d="M78.9721 13.8706L78.7014 13.0393H74.894V13.8706V18.753V19.5843H82.9717V13.8706H78.9721Z" fill="#92E3A9"/>
<path d="M63.131 25.4961H59.3237V26.3274V31.2098V32.0411H67.4014V26.3274H63.4018L63.131 25.4961Z" fill="#92E3A9"/>
<path d="M78.7014 37.9519H74.894V38.7832V43.6656V44.4969H82.9717V38.7832H78.9721L78.7014 37.9519Z" fill="#92E3A9"/>
<path d="M78.7014 25.4961H74.894V26.3274V31.2098V32.0411H82.9717V26.3274H78.9721L78.7014 25.4961Z" fill="#92E3A9"/>
<path d="M63.131 37.9519H59.3237V38.7832V43.6656V44.4969H67.4014V38.7832H63.4018L63.131 37.9519Z" fill="#92E3A9"/>
<path d="M63.131 50.4106H59.3237V51.242V56.1243V56.9556H67.4014V51.242H63.4018L63.131 50.4106Z" fill="#92E3A9"/>
<path d="M78.7014 50.4106H74.894V51.242V56.1243V56.9556H82.9717V51.242H78.9721L78.7014 50.4106Z" fill="#92E3A9"/>
<path d="M63.131 62.8665H59.3237V63.6978V68.5801V69.4115H67.4014V63.6978H63.4018L63.131 62.8665Z" fill="#92E3A9"/>
<path d="M78.7014 62.8665H74.894V63.6978V68.5801V69.4115H82.9717V63.6978H78.9721L78.7014 62.8665Z" fill="#92E3A9"/>
<g opacity="0.5">
<path d="M38.7165 13.0396H34.9065V13.8709V18.7532V19.5846H42.9869V13.8709H38.9873L38.7165 13.0396Z" fill="white"/>
<path d="M38.7165 25.4961H34.9065V26.3274V31.2098V32.0411H42.9869V26.3274H38.9873L38.7165 25.4961Z" fill="white"/>
<path d="M38.7165 37.9519H34.9065V38.7832V43.6656V44.4969H42.9869V38.7832H38.9873L38.7165 37.9519Z" fill="white"/>
<path d="M38.7165 50.4106H34.9065V51.242V56.1243V56.9556H42.9869V51.242H38.9873L38.7165 50.4106Z" fill="white"/>
<path d="M38.7165 62.8665H34.9065V63.6978V68.5801V69.4115H42.9869V63.6978H38.9873L38.7165 62.8665Z" fill="white"/>
<path d="M63.131 13.0393H59.3237V13.8706V18.753V19.5843H67.4014V13.8706H63.4018L63.131 13.0393Z" fill="white"/>
<path d="M78.9721 13.8706L78.7014 13.0393H74.894V13.8706V18.753V19.5843H82.9717V13.8706H78.9721Z" fill="white"/>
<path d="M63.131 25.4961H59.3237V26.3274V31.2098V32.0411H67.4014V26.3274H63.4018L63.131 25.4961Z" fill="white"/>
<path d="M78.7014 37.9519H74.894V38.7832V43.6656V44.4969H82.9717V38.7832H78.9721L78.7014 37.9519Z" fill="white"/>
<path d="M78.7014 25.4961H74.894V26.3274V31.2098V32.0411H82.9717V26.3274H78.9721L78.7014 25.4961Z" fill="white"/>
<path d="M63.131 37.9519H59.3237V38.7832V43.6656V44.4969H67.4014V38.7832H63.4018L63.131 37.9519Z" fill="white"/>
<path d="M63.131 50.4106H59.3237V51.242V56.1243V56.9556H67.4014V51.242H63.4018L63.131 50.4106Z" fill="white"/>
<path d="M78.7014 50.4106H74.894V51.242V56.1243V56.9556H82.9717V51.242H78.9721L78.7014 50.4106Z" fill="white"/>
<path d="M63.131 62.8665H59.3237V63.6978V68.5801V69.4115H67.4014V63.6978H63.4018L63.131 62.8665Z" fill="white"/>
<path d="M78.7014 62.8665H74.894V63.6978V68.5801V69.4115H82.9717V63.6978H78.9721L78.7014 62.8665Z" fill="white"/>
</g>
<path d="M17.3322 31.6593C17.3322 31.6593 17.0885 33.3301 17.8954 34.4728C18.7024 35.6156 24.5893 40.4031 25.1147 40.6793C25.64 40.9556 27.8984 40.3652 27.216 38.5401C26.5336 36.715 21.5755 32.8535 20.5817 31.8083C19.5878 30.763 18.6617 30.9147 18.6617 30.9147" fill="#92E3A9"/>
<path d="M17.3322 31.6593C17.3322 31.6593 17.0885 33.3301 17.8954 34.4728C18.7024 35.6156 24.5893 40.4031 25.1147 40.6794C25.64 40.9556 27.8984 40.3652 27.216 38.5401C26.5336 36.715 21.5755 32.8535 20.5817 31.8083C19.5878 30.763 18.6617 30.9147 18.6617 30.9147" stroke="#263238" stroke-miterlimit="10"/>
<path d="M26.336 37.7522C26.336 37.7522 27.4652 37.8307 29.5612 37.7522C31.6571 37.6736 36.8996 37.9932 37.7065 37.9932H38.5189L38.4404 39.8481C38.4404 39.8481 34.4868 40.1703 31.7464 40.5738C29.006 40.9773 26.7476 41.462 24.4893 40.3328" fill="#92E3A9"/>
<path d="M26.336 37.7522C26.336 37.7522 27.4652 37.8307 29.5612 37.7522C31.6571 37.6736 36.8996 37.9932 37.7065 37.9932H38.5189L38.4404 39.8481C38.4404 39.8481 34.4868 40.1703 31.7464 40.5738C29.006 40.9773 26.7476 41.462 24.4893 40.3328" stroke="#263238" stroke-linecap="round" stroke-linejoin="round"/>
<path d="M38.5106 37.9927L38.6514 37.6651C38.8743 37.1446 39.2526 36.7057 39.7346 36.4086C40.1593 36.2844 40.5648 36.1021 40.9396 35.867L41.0073 35.8264C41.0073 35.8264 41.511 35.9726 41.2158 36.368C41.1416 36.483 41.0386 36.5765 40.9169 36.6392C40.7953 36.702 40.6593 36.7317 40.5226 36.7254L40.1191 37.3699L42.8947 37.5947C42.8947 37.5947 43.2955 37.7544 42.9733 37.9954C42.651 38.2364 41.0777 38.1769 41.0777 38.1769L43.0789 38.5289C43.0789 38.5289 43.3063 38.7564 43.2089 38.9486C43.1114 39.1409 41.0127 38.8836 41.0127 38.8836L42.7891 39.3684C42.8615 39.4233 42.9134 39.5009 42.9364 39.5887C42.9595 39.6766 42.9524 39.7697 42.9164 39.8531C42.8541 40.0155 42.4669 39.9506 42.3044 39.8856C42.1419 39.8206 40.9802 39.6283 40.9802 39.6283L42.2719 40.3378C42.2592 40.4145 42.2278 40.487 42.1806 40.5488C42.1334 40.6106 42.0718 40.66 42.0011 40.6925C41.8107 40.7457 41.6094 40.7457 41.4189 40.6925L39.74 40.0155C39.74 40.0155 39.6507 40.2403 38.405 39.8693L38.5106 37.9927Z" fill="white" stroke="#263238" stroke-linecap="round" stroke-linejoin="round"/>
<path d="M40.1246 37.3485C40.1246 37.3485 40.2844 38.54 39.6697 38.7675L40.1246 37.3485Z" fill="white"/>
<path d="M40.1246 37.3485C40.1246 37.3485 40.2844 38.54 39.6697 38.7675" stroke="#263238" stroke-linecap="round" stroke-linejoin="round"/>
<path d="M77.3202 32.3901C77.3202 32.3901 77.2173 34.0744 76.1938 35.0303C75.1702 35.9862 68.4329 39.4686 67.8615 39.6338C67.2902 39.7989 65.1997 38.7591 66.2368 37.1127C67.2739 35.4663 72.9199 32.6988 74.106 31.8729C75.292 31.047 76.1667 31.3882 76.1667 31.3882" fill="#92E3A9"/>
<path d="M77.3202 32.3901C77.3202 32.3901 77.2173 34.0744 76.1938 35.0303C75.1702 35.9862 68.4329 39.4686 67.8615 39.6338C67.2902 39.7989 65.1997 38.7591 66.2368 37.1127C67.2739 35.4663 72.9199 32.6988 74.106 31.8729C75.292 31.047 76.1667 31.3882 76.1667 31.3882" stroke="#263238" stroke-miterlimit="10"/>
<path d="M67.2524 36.5197C67.2524 36.5197 66.1313 36.368 64.095 35.8616C62.0587 35.3553 56.8622 34.6025 56.0715 34.4373L55.2835 34.2721L54.9829 36.1053C54.9829 36.1053 58.774 37.2264 61.3871 38.1823C64.0002 39.1382 66.1016 40.0778 68.5414 39.4252" fill="#92E3A9"/>
<path d="M67.2524 36.5197C67.2524 36.5197 66.1313 36.368 64.095 35.8616C62.0587 35.3553 56.8622 34.6025 56.0715 34.4373L55.2835 34.2721L54.9829 36.1053C54.9829 36.1053 58.774 37.2264 61.3871 38.1823C64.0002 39.1382 66.1016 40.0778 68.5414 39.4252" stroke="#263238" stroke-linecap="round" stroke-linejoin="round"/>
<path d="M55.2833 34.2696L55.2129 33.9203C55.0985 33.3642 54.8147 32.8571 54.4005 32.4688C54.0101 32.2567 53.6502 31.9926 53.3309 31.6836L53.2767 31.6294C53.2767 31.6294 52.7514 31.67 52.9653 32.106C53.0138 32.2337 53.0952 32.3463 53.2013 32.4323C53.3073 32.5184 53.4343 32.5749 53.5692 32.5961L53.84 33.311L51.0779 32.9644C51.0779 32.9644 50.6501 33.0402 50.9182 33.3408C51.1862 33.6414 52.7298 33.9013 52.7298 33.9013L50.6988 33.8418C50.6988 33.8418 50.428 34.0151 50.4849 34.2263C50.5418 34.4375 52.6512 34.6108 52.6512 34.6108L50.8153 34.7218C50.7331 34.7605 50.6662 34.8254 50.625 34.9063C50.5838 34.9872 50.5707 35.0795 50.5878 35.1686C50.6203 35.3419 51.0129 35.3555 51.1835 35.3257C51.3541 35.2959 52.5375 35.3446 52.5375 35.3446L51.1267 35.7752C51.1229 35.8516 51.1375 35.9278 51.169 35.9975C51.2005 36.0672 51.2482 36.1284 51.3081 36.176C51.4833 36.2667 51.6799 36.3079 51.8768 36.2951L53.6586 35.9729C53.6586 35.9729 53.7019 36.2112 54.9963 36.1029L55.2833 34.2696Z" fill="white" stroke="#263238" stroke-linecap="round" stroke-linejoin="round"/>
<path d="M53.8348 33.3109C53.8348 33.3109 53.4367 34.4455 53.9891 34.7921L53.8348 33.3109Z" fill="white"/>
<path d="M53.8348 33.3109C53.8348 33.3109 53.4367 34.4455 53.9891 34.7921" stroke="#263238" stroke-linecap="round" stroke-linejoin="round"/>
<path d="M55.741 45.0147H40.3601V24.4156H51.1619L55.741 28.6102V45.0147Z" fill="white" stroke="#263238" stroke-linecap="round" stroke-linejoin="round"/>
<path d="M51.1621 24.4156V28.6102H55.7412L51.1621 24.4156Z" fill="#263238" stroke="#263238" stroke-linecap="round" stroke-linejoin="round"/>
<path d="M57.3226 45.2091C58.8994 43.5406 58.825 40.9098 57.1565 39.3331C55.488 37.7564 52.8572 37.8308 51.2805 39.4993C49.7037 41.1678 49.7781 43.7986 51.4466 45.3753C53.1151 46.952 55.7459 46.8776 57.3226 45.2091Z" fill="#263238"/>
<path d="M56.5399 41.8733H54.7797V40.1158H53.8211V41.8733H52.0637V42.8346H53.8211V44.592H54.7797V42.8346H56.5399V41.8733Z" fill="white"/>
<path d="M63.2745 68.3594H33.6798L30.2678 45.5508H63.2745V68.3594Z" fill="#263238" stroke="#263238" stroke-linecap="round" stroke-linejoin="round"/>
<path d="M47.853 45.5508L47.4089 44.2726C47.2897 43.9302 47.0669 43.6333 46.7714 43.4232C46.4759 43.2131 46.1223 43.1002 45.7597 43.1001H33.7854V68.3594H63.3828L66.792 45.5508H47.853Z" fill="#92E3A9" stroke="#263238" stroke-linecap="round" stroke-linejoin="round"/>
<path d="M15.5097 79.3536C15.5097 79.3536 16.1677 80.8294 16.8231 81.3223C17.4784 81.8151 18.7186 81.7339 18.8757 82.5544C19.0327 83.3748 18.3828 83.4561 17.8087 83.4561C17.2347 83.4561 15.4285 83.4561 15.1008 83.3748C14.066 83.0117 13.096 82.4851 12.2278 81.8151C11.2448 81.0027 10.9984 81.0758 11.7376 79.5161C12.4769 77.9563 15.5097 79.3536 15.5097 79.3536Z" fill="#92E3A9" stroke="#263238" stroke-miterlimit="10"/>
<path d="M18.8973 82.7114C18.1012 82.8522 16.5415 83.0445 15.1686 82.7114C13.7957 82.3783 12.1736 81.1435 11.3531 80.4666C11.1825 81.1056 11.5048 81.2221 12.2278 81.8205C13.0969 82.4857 14.0669 83.0077 15.1009 83.3667C15.4285 83.448 17.2347 83.4479 17.8088 83.4479C18.3828 83.4479 18.9488 83.383 18.8973 82.7114Z" fill="white" stroke="#263238" stroke-miterlimit="10"/>
<path d="M17.9712 52.5508C17.9712 52.5508 16.8447 62.0014 15.943 64.3816C15.0413 66.7619 13.6819 68.2675 13.3542 70.0682C13.0266 71.869 11.7295 79.5134 11.7295 79.5134C11.7295 79.5134 12.5419 80.3257 13.1241 80.2526C13.7063 80.1795 15.4204 80.4178 15.9132 79.5134C16.406 78.6089 16.5279 77.1467 16.6091 76.9002C16.6904 76.6538 20.1294 70.0005 20.9607 67.3738C21.7921 64.7472 24.4241 53.8993 24.3429 52.586" fill="#263238"/>
<path d="M17.9712 52.5508C17.9712 52.5508 16.8447 62.0014 15.943 64.3816C15.0413 66.7619 13.6819 68.2675 13.3542 70.0682C13.0266 71.869 11.7295 79.5134 11.7295 79.5134C11.7295 79.5134 12.5419 80.3257 13.1241 80.2526C13.7063 80.1795 15.4204 80.4178 15.9132 79.5134C16.406 78.6089 16.5279 77.1467 16.6091 76.9002C16.6904 76.6538 20.1294 70.0005 20.9607 67.3738C21.7921 64.7472 24.4241 53.8993 24.3429 52.586" stroke="#263238" stroke-miterlimit="10"/>
<path d="M17.3701 46.0676C17.3701 46.0676 16.3655 49.022 16.7419 51.6622C17.1183 54.3024 20.0753 55.6238 22.1577 55.2447C24.24 54.8656 24.7979 53.4223 24.7979 50.9121C24.7911 49.3587 24.6834 47.8074 24.4756 46.268C22.1531 47.0104 19.6471 46.9397 17.3701 46.0676Z" fill="#263238" stroke="#263238" stroke-miterlimit="10"/>
<path d="M18.0634 26.8308C18.0634 26.8308 16.1678 30.3511 16.0514 33.1781C15.935 36.0052 17.3701 46.0678 17.3701 46.0678C17.3701 46.0678 17.9361 47.1997 20.6413 47.3242C23.3465 47.4488 24.4757 46.5119 24.4757 46.5119C24.4757 46.5119 25.418 40.0995 25.418 36.7038C25.418 33.3081 22.7778 28.2795 22.7778 28.2795L18.0634 26.8308Z" fill="#92E3A9" stroke="#263238" stroke-miterlimit="10"/>
<path d="M16.6064 34.6595C16.6064 34.6595 16.7716 36.6499 19.179 36.899" stroke="#263238" stroke-linecap="round" stroke-linejoin="round"/>
<path d="M17.27 37.3134C18.1474 37.8308 19.1842 38.0082 20.1837 37.8116" stroke="#263238" stroke-linecap="round" stroke-linejoin="round"/>
<path d="M18.1824 46.1873C18.1824 46.1873 20.587 44.1157 21.8326 42.2067" stroke="#263238" stroke-linecap="round" stroke-linejoin="round"/>
<path d="M21.5836 44.1968C21.5836 44.1968 19.5093 46.3631 18.762 46.6041" stroke="#263238" stroke-linecap="round" stroke-linejoin="round"/>
<path d="M19.4443 22.1681C19.4443 22.1681 19.382 23.9282 19.1952 25.1224C19.0084 26.3166 18.9434 26.8202 18.9434 26.8202L22.4014 28.139C22.4014 28.139 22.0845 25.7506 22.5259 24.7433C22.7747 24.2055 22.9443 23.6345 23.0296 23.0481C23.0296 23.0481 21.8977 20.2806 20.7035 20.0911C19.5093 19.9015 19.4443 22.1681 19.4443 22.1681Z" fill="white" stroke="#263238" stroke-miterlimit="10"/>
<path d="M24.1615 17.0853C24.1615 17.0853 24.7898 16.5194 23.972 14.6482C23.1542 12.7771 19.1952 12.8881 17.3078 14.5832C15.4204 16.2784 14.7922 19.3004 16.4277 21.2474C18.0633 23.1944 20.0103 23.4489 21.2695 22.6934C22.5287 21.9379 22.6505 20.4946 22.6505 19.9286C22.6505 19.3627 22.2118 17.979 22.8401 17.6026C23.2496 17.3597 23.6959 17.185 24.1615 17.0853Z" fill="#263238" stroke="#263238" stroke-miterlimit="10"/>
<path d="M17.6841 26.9554L23.2813 29.2192L22.9672 27.3968L17.9982 25.3198L17.6841 26.9554Z" fill="white" stroke="#263238" stroke-miterlimit="10"/>
<path d="M24.8655 81.569C24.8655 81.569 26.5065 82.5547 27.4082 82.9636C28.3099 83.3725 28.3939 83.2912 28.3939 83.8653C28.3939 84.4394 28.4751 84.5233 26.9966 84.5233C25.5181 84.5233 21.2531 84.6046 20.8443 84.2769C20.4354 83.9493 24.2914 81.3226 24.8655 81.569Z" fill="#92E3A9" stroke="#263238" stroke-miterlimit="10"/>
<path d="M26.9967 84.5226C28.3804 84.5226 28.3967 84.4495 28.394 83.981C24.1886 84.1083 22.1387 83.9485 21.1422 83.7644C20.8714 84.0162 20.7496 84.2112 20.8443 84.287C21.2668 84.6039 25.5209 84.5226 26.9967 84.5226Z" fill="white" stroke="#263238" stroke-miterlimit="10"/>
<path d="M23.9745 16.6439C23.9745 16.6439 21.0202 18.0277 21.0202 18.5395C21.0202 19.0512 22.2767 19.23 21.9003 19.8609C21.7213 20.1737 21.5089 20.4661 21.2666 20.7329C21.2666 20.7329 21.7676 21.6129 21.3289 21.7375C20.8902 21.862 20.7007 21.862 20.2457 21.2338C19.7908 20.6056 19.3657 20.2915 19.2411 21.3611C19.1165 22.4307 19.6175 22.6176 19.9939 22.6798C20.2862 22.7146 20.5816 22.7146 20.874 22.6798C20.874 22.6798 21.5049 24.1881 21.9436 24.3777C22.3823 24.5672 24.5215 24.8191 24.9602 24.3154C25.3989 23.8117 25.0875 21.5479 25.0875 21.5479C25.0875 21.5479 25.7157 21.4234 25.7157 20.8574C25.7157 20.2915 24.7111 19.4737 24.7111 19.4737C24.7111 19.4737 24.9602 19.0973 24.7733 18.2172C24.6317 17.6383 24.3583 17.0999 23.9745 16.6439Z" fill="white" stroke="#263238" stroke-miterlimit="10"/>
<path d="M24.0586 19.7526C24.0586 19.9503 23.9801 20.1127 23.8799 20.1127C23.7797 20.1127 23.7012 19.9503 23.7012 19.7526C23.7012 19.5549 23.7797 19.3951 23.8799 19.3951C23.9801 19.3951 24.0586 19.5549 24.0586 19.7526Z" fill="#263238"/>
<path d="M23.2625 19.1106C23.2625 19.1106 23.3545 18.5691 24.1696 18.6747" stroke="#263238" stroke-linecap="round" stroke-linejoin="round"/>
<path d="M24.3268 22.3655C24.0224 22.3391 23.741 22.193 23.5442 21.9594" stroke="#263238" stroke-linecap="round" stroke-linejoin="round"/>
<path d="M17.4756 52.7128C17.4756 52.7128 18.0497 58.3751 18.7862 60.8366C19.5228 63.298 19.5255 64.3568 19.2791 66.4988C19.0326 68.6407 18.2121 70.6013 18.7862 72.5699C19.3603 74.5386 20.5111 82.9628 20.5111 83.2905C20.5111 83.6181 20.4272 84.1029 20.8388 84.2762C21.2504 84.4495 24.7761 82.0611 24.86 81.5683C24.944 81.0754 24.286 79.5996 24.286 78.2863C24.286 76.973 24.6949 69.2879 24.6949 65.5971C24.6949 61.9062 25.1065 54.8467 23.7931 51.5647" fill="#263238"/>
<path d="M17.4756 52.7128C17.4756 52.7128 18.0497 58.3751 18.7862 60.8366C19.5228 63.298 19.5255 64.3568 19.2791 66.4988C19.0326 68.6407 18.2121 70.6013 18.7862 72.5699C19.3603 74.5386 20.5111 82.9628 20.5111 83.2905C20.5111 83.6182 20.4272 84.1029 20.8388 84.2762C21.2504 84.4495 24.7761 82.0611 24.86 81.5683C24.944 81.0754 24.286 79.5996 24.286 78.2863C24.286 76.973 24.6949 69.2879 24.6949 65.5971C24.6949 61.9062 25.1065 54.8467 23.7931 51.5647" stroke="#263238" stroke-miterlimit="10"/>
<path d="M17.9468 56.2876C17.9468 56.2876 18.334 59.0415 18.7916 60.8369C19.2493 62.6322 19.7177 63.4744 19.1599 65.7111C18.6021 67.9478 18.4125 68.6898 18.6915 69.8163" stroke="white" stroke-linecap="round" stroke-linejoin="round"/>
<path d="M68.1298 79.9656C68.1298 79.9656 64.772 81.0866 63.9732 81.3195C63.1743 81.5524 62.454 81.7203 63.1743 82.5191C63.8947 83.318 67.4122 83.3992 68.4493 83.3992C69.4865 83.3992 70.2095 83.957 70.4478 83.318C70.6861 82.6789 70.6888 80.9188 70.6888 80.9188L68.1298 79.9656Z" fill="#92E3A9" stroke="#263238" stroke-miterlimit="10"/>
<path d="M70.5506 82.936C69.657 82.909 67.97 82.825 65.9743 82.5678C64.9259 82.4671 63.8963 82.223 62.9144 81.842C62.8412 82.0018 62.9144 82.2157 63.1851 82.5244C63.9055 83.3233 67.423 83.4045 68.4601 83.4045C69.4973 83.4045 70.2203 83.9623 70.4586 83.3233C70.5011 83.1973 70.5319 83.0677 70.5506 82.936Z" fill="white" stroke="#263238" stroke-miterlimit="10"/>
<path d="M78.2817 80.7644C78.2817 80.7644 75.7227 82.6843 75.0051 83.0824C74.2876 83.4804 74.1251 84.1222 74.7641 84.1222C75.4032 84.1222 80.5997 84.282 81.32 83.8027C82.0403 83.3234 81.0004 81.0054 81.0004 81.0054C81.0004 81.0054 79.0805 80.7644 78.2817 80.7644Z" fill="#92E3A9" stroke="#263238" stroke-miterlimit="10"/>
<path d="M81.3199 83.8026C81.523 83.6672 81.5907 83.3829 81.569 83.0471C79.2459 83.456 76.8841 83.6013 74.5285 83.4804C74.2739 83.808 74.3254 84.1222 74.7749 84.1222C75.4031 84.1222 80.5996 84.2819 81.3199 83.8026Z" fill="white" stroke="#263238" stroke-miterlimit="10"/>
<path d="M72.1265 43.6605C72.1265 43.6605 68.6062 55.8894 68.4492 58.7679C68.2921 61.6464 68.1296 76.9298 68.1296 77.6474V79.9654L70.6886 80.924C70.6886 80.924 71.8882 71.8769 72.1265 69.7187C72.3648 67.5605 72.5273 65.1613 72.8468 64.0321C73.1663 62.9029 73.8054 58.3455 74.0464 57.3977C74.2874 56.4499 74.8452 52.4422 74.6855 47.8848C74.5257 43.3274 72.687 42.5394 72.1265 43.6605Z" fill="#263238" stroke="#263238" stroke-miterlimit="10"/>
<path d="M71.7285 42.7805C71.7285 42.7805 71.807 46.3766 71.8883 49.8942C71.9695 53.4118 71.7285 58.768 72.5273 62.6051C73.3262 66.4422 76.443 74.7717 76.7625 76.1283C77.082 77.485 78.2031 81.0865 78.2031 81.0865C78.2031 81.0865 79.9605 81.2463 81.0004 81.0053C81.0004 81.0053 79.9605 73.2363 79.8008 70.198C79.641 67.1598 77.7211 62.8434 77.323 61.8035C76.925 60.7637 78.1327 52.4531 78.1327 52.4531C78.1327 52.4531 80.0499 48.9329 79.5706 46.6961C79.2976 45.3743 78.6608 44.1551 77.7319 43.1759C77.7319 43.1759 72.9254 43.8312 71.7285 42.7805Z" fill="#263238" stroke="#263238" stroke-miterlimit="10"/>
<path d="M71.9858 47.793C71.9858 47.793 71.8937 57.0323 72.2566 59.6455C72.6194 62.2586 73.0012 63.2876 73.0012 63.2876" stroke="white" stroke-linecap="round" stroke-linejoin="round"/>
<path d="M77.5614 27.5839C77.5614 27.5839 76.6028 26.8663 74.5259 28.3963C72.4489 29.9262 70.0497 34.0693 70.2095 35.6697C70.3692 37.2701 71.7286 41.9845 71.7286 42.7833C71.7286 43.5822 71.9669 43.2626 72.9255 43.5822C73.8841 43.9017 76.6028 43.8232 77.2419 43.5036C77.881 43.1841 77.5614 41.1044 77.7212 39.347C77.881 37.5896 78.9208 34.1506 78.8423 31.6728C78.7637 29.1951 77.881 27.9115 77.5614 27.5839Z" fill="#92E3A9" stroke="#263238" stroke-miterlimit="10"/>
<path d="M73.6457 18.4794C73.6457 18.4794 72.6871 19.679 72.6871 20.4779C72.6871 21.2767 72.5084 22.1026 72.0291 22.4952C71.5498 22.8879 71.5661 23.2751 71.9668 23.3564L72.3676 23.4349C72.3676 23.4349 72.5924 25.1788 72.9092 25.8205C73.226 26.4623 74.3633 25.9126 74.6016 25.8205C74.8399 25.7285 74.5231 28.1385 74.5231 28.3795C74.5231 28.6205 76.9196 28.2983 77.231 28.2983C77.5424 28.2983 77.3908 25.4198 77.7103 24.5424C78.0298 23.6651 79.0642 22.544 77.7915 20.6241C76.5188 18.7042 74.366 17.1201 73.6457 18.4794Z" fill="white" stroke="#263238" stroke-miterlimit="10"/>
<path d="M73.2964 22.0436C73.2964 22.2413 73.3749 22.4011 73.4751 22.4011C73.5753 22.4011 73.6538 22.2413 73.6538 22.0436C73.6538 21.8459 73.5753 21.6835 73.4751 21.6835C73.3749 21.6835 73.2964 21.8459 73.2964 22.0436Z" fill="#263238"/>
<path d="M72.8088 24.0636C72.8088 24.0636 73.0796 24.375 73.6916 23.958" stroke="#263238" stroke-linecap="round" stroke-linejoin="round"/>
<path d="M73.0176 21.0416C73.0176 21.0416 73.4833 20.4702 74.0547 21.1987" stroke="#263238" stroke-linecap="round" stroke-linejoin="round"/>
<path d="M75.915 27.4428C75.915 27.4428 73.8408 28.1875 73.5077 28.6858C73.1746 29.184 72.9282 30.0126 73.4265 30.0126C73.9247 30.0126 76.0775 28.5639 76.6597 28.4366C77.2419 28.3094 76.6597 26.6954 75.915 27.4428Z" fill="white" stroke="#263238" stroke-miterlimit="10"/>
<path d="M73.6457 18.4796C73.8437 19.549 74.2806 20.5598 74.9239 21.4367C75.9637 22.7906 77.0035 22.4765 76.7625 23.603C76.5215 24.7295 74.7641 26.3109 75.4844 28.0819C76.2047 29.8528 77.8024 30.1588 78.1219 30.8791C78.4414 31.5994 79.1617 31.8377 78.3629 34.7162C77.5641 37.5947 76.3645 39.91 77.4016 42.6287C78.4387 45.3474 81.1602 46.065 83.2371 45.1064C85.3141 44.1478 84.036 41.1096 84.518 39.2709C85 37.4322 89.1539 35.9943 87.7133 30.8764C86.2727 25.7585 82.9176 24.4018 82.0267 22.6417C81.1358 20.8815 81.3091 17.9272 79.4704 16.7276C77.6318 15.528 75.5521 16.5678 74.8345 16.7276C74.1169 16.8874 73.7134 15.6878 72.2755 16.2483C70.8376 16.8088 69.9792 19.4978 72.5463 20.061C72.8157 19.4727 73.188 18.9371 73.6457 18.4796Z" fill="#263238" stroke="#263238" stroke-miterlimit="10"/>
<path d="M76.2886 22.3086C76.79 22.8284 77.3902 23.2428 78.0541 23.5272C81.0328 24.8324 83.0935 26.7008 83.0935 29.8718C83.0935 33.0427 80.1148 35.1928 80.0119 37.9007C79.909 40.6086 81.4119 42.6585 82.9906 41.819C84.5693 40.9796 83.8328 39.3007 83.2614 39.3007" stroke="white" stroke-linecap="round" stroke-linejoin="round"/>
<path d="M74.8833 19.3274C74.9446 19.8864 75.1022 20.4306 75.3491 20.9359" stroke="white" stroke-linecap="round" stroke-linejoin="round"/>
<path d="M84.6047 28.1713C85.2062 29.4975 85.5182 30.9366 85.5199 32.3929C85.4251 35.6586 81.5068 37.1534 81.0383 39.1139C80.6186 40.8767 81.8805 42.4717 82.9989 41.8218" stroke="white" stroke-linecap="round" stroke-linejoin="round"/>
<path d="M83.4673 26.0458C83.7307 26.4404 83.9695 26.851 84.1822 27.2752" stroke="white" stroke-linecap="round" stroke-linejoin="round"/>
<path d="M79.0805 32.3931C79.4592 31.1404 79.426 29.7992 78.9858 28.5668C78.2384 26.6063 77.3989 25.672 77.3989 24.6458" stroke="white" stroke-linecap="round" stroke-linejoin="round"/>
<path d="M73.6457 18.4799C73.5053 18.2356 73.3052 18.031 73.0641 17.8851C72.823 17.7393 72.5489 17.6569 72.2674 17.6459C71.3332 17.6459 71.4252 18.859 72.4515 19.0459" stroke="white" stroke-linecap="round" stroke-linejoin="round"/>
<path d="M18.7916 30.2319C18.7916 30.2319 17.6435 31.8729 17.8899 33.5139C18.1363 35.1548 21.8299 43.3598 22.2388 43.9339C22.6477 44.5079 25.3556 45.0847 25.602 42.7857C25.8484 40.4867 22.6504 33.7603 22.1575 32.1193C21.6647 30.4783 20.5978 30.1506 20.5978 30.1506" fill="#92E3A9"/>
<path d="M18.7916 30.2319C18.7916 30.2319 17.6435 31.8729 17.8899 33.5139C18.1363 35.1548 21.8299 43.3598 22.2388 43.9339C22.6477 44.5079 25.3556 45.0847 25.602 42.7857C25.8484 40.4867 22.6504 33.7603 22.1575 32.1193C21.6647 30.4783 20.5978 30.1506 20.5978 30.1506" stroke="#263238" stroke-miterlimit="10"/>
<path d="M24.9927 41.069C24.9927 41.069 27.3973 41.375 29.0816 42.3931C30.766 43.4113 36.1222 45.3177 36.1222 45.3177L35.7377 46.9072C35.7377 46.9072 29.8426 46.2275 27.3432 45.7672C24.8438 45.3068 23.2217 45.0875 22.2983 43.7606" fill="#92E3A9"/>
<path d="M24.9927 41.069C24.9927 41.069 27.3973 41.375 29.0816 42.3931C30.766 43.4113 36.1222 45.3177 36.1222 45.3177L35.7377 46.9072C35.7377 46.9072 29.8426 46.2275 27.3432 45.7672C24.8438 45.3068 23.2217 45.0875 22.2983 43.7606" stroke="#263238" stroke-miterlimit="10"/>
<path d="M40.9938 47.3326L38.8058 46.6475L38.8302 46.4174C38.8302 46.4174 40.6959 46.7775 40.899 46.8019C41.1021 46.8263 41.1698 46.7261 41.1698 46.5988C41.1564 46.5023 41.1117 46.4128 41.0425 46.3443L37.9826 45.2449L39.74 44.9145C39.9946 44.7114 39.7129 44.5083 39.7129 44.5083L37.6495 44.557L36.1277 45.318L35.7432 46.9075C35.7432 46.9075 38.5675 49.3446 38.6948 49.4231C38.822 49.5017 38.8979 49.6262 39.101 49.499C39.3041 49.3717 39.2282 49.2282 39.2282 49.2282L38.3265 48.3021L39.8808 48.7597C40.0569 48.8112 40.0839 48.8626 40.2112 48.8112C40.3385 48.7597 40.3628 48.4293 40.3628 48.4293L38.554 47.5899L38.6325 47.4112C38.6325 47.4112 40.6391 47.8932 40.7636 47.8932C40.8882 47.8932 40.9667 47.8932 41.0696 47.6657C41.1018 47.611 41.1119 47.546 41.0978 47.4841C41.0837 47.4222 41.0465 47.368 40.9938 47.3326Z" fill="white" stroke="#263238" stroke-linecap="round" stroke-linejoin="round"/>
<path d="M78.0813 30.9419C78.0813 30.9419 76.9711 29.4011 75.4059 30.4003C73.8407 31.3995 68.165 36.6582 68.165 36.6582C68.165 36.6582 67.0168 38.0122 68.7066 39.0033C70.3963 39.9944 77.3285 33.8312 78.0786 33.3167" fill="#92E3A9"/>
<path d="M78.0813 30.9419C78.0813 30.9419 76.9711 29.4011 75.4059 30.4003C73.8407 31.3995 68.165 36.6582 68.165 36.6582C68.165 36.6582 67.0168 38.0122 68.7066 39.0033C70.3963 39.9944 77.3285 33.8312 78.0786 33.3167" stroke="#263238" stroke-miterlimit="10"/>
<path d="M69.3103 36.6822C69.3103 36.6822 68.4681 36.1542 66.5537 35.8184C64.6392 35.4826 58.0617 31.8188 58.0617 31.8188L56.9785 33.1728C56.9785 33.1728 61.6063 36.5766 64.0191 38.0335C66.4318 39.4903 67.5096 39.8749 68.284 39.7963C69.0585 39.7178 70.8646 38.0254 70.8646 38.0254" fill="#92E3A9"/>
<path d="M69.3103 36.6822C69.3103 36.6822 68.4681 36.1542 66.5537 35.8184C64.6392 35.4826 58.0617 31.8188 58.0617 31.8188L56.9785 33.1728C56.9785 33.1728 61.6063 36.5766 64.0191 38.0335C66.4318 39.4903 67.5096 39.8749 68.284 39.7963C69.0585 39.7178 70.8646 38.0254 70.8646 38.0254" stroke="#263238" stroke-miterlimit="10"/>
<path d="M53.5207 28.8864L55.27 30.281L55.4406 30.1375C55.4406 30.1375 54.1354 28.8268 54.0054 28.6752C53.8754 28.5236 53.9133 28.4044 54.0054 28.3367C54.0898 28.297 54.1844 28.2847 54.2762 28.3015L56.827 30.1781L56.1392 28.5777C56.1663 28.2609 56.4831 28.3773 56.4831 28.3773L57.5663 30.0725L57.9021 31.7406L57.0626 33.2489C57.0626 33.2489 53.1984 31.9355 53.0684 31.8759C52.9385 31.8164 52.7977 31.8218 52.7841 31.5862C52.7706 31.3506 52.9412 31.3317 52.9412 31.3317L54.1814 31.5727L52.9791 30.5626C52.841 30.4462 52.7868 30.4543 52.757 30.3216C52.7273 30.1889 52.9845 29.9912 52.9845 29.9912L54.6472 30.9959L54.7501 30.8361C54.7501 30.8361 53.2634 29.4822 53.193 29.3711C53.1226 29.2601 53.082 29.206 53.212 29.0001C53.2389 28.9451 53.2861 28.9026 53.3435 28.8815C53.401 28.8603 53.4645 28.8621 53.5207 28.8864Z" fill="white" stroke="#263238" stroke-linecap="round" stroke-linejoin="round"/>
</svg>
