<svg width="32" height="32" viewBox="0 0 32 32" fill="none" xmlns="http://www.w3.org/2000/svg">
<path d="M8.87654 24.6456L15.9996 21.6199L23.1227 24.6456V6.50461C23.1227 6.40206 23.0799 6.30803 22.9945 6.22255C22.909 6.13708 22.8149 6.09435 22.7124 6.09435H9.28684C9.18426 6.09435 9.09023 6.13708 9.00474 6.22255C8.91927 6.30803 8.87654 6.40206 8.87654 6.50461V24.6456ZM8.72914 26.325C8.41387 26.4609 8.11604 26.4371 7.83564 26.2537C7.55524 26.0702 7.41504 25.8128 7.41504 25.4814V6.50235C7.41504 6.00626 7.60095 5.57065 7.97277 5.19551C8.34459 4.82038 8.78168 4.63281 9.28404 4.63281H22.7152C23.2175 4.63281 23.6546 4.82038 24.0264 5.19551C24.3983 5.57065 24.5842 6.00626 24.5842 6.50235V25.4814C24.5842 25.8128 24.4464 26.0702 24.171 26.2537C23.8955 26.4371 23.6029 26.4609 23.2931 26.325L15.9996 23.202L8.72914 26.325Z" fill="#5C5C5C"/>
</svg>
