<svg width="32" height="32" viewBox="0 0 32 32" fill="none" xmlns="http://www.w3.org/2000/svg">
<path d="M11.6386 8.52571V6.01281C11.6386 5.52212 11.8245 5.08793 12.1963 4.71024C12.5682 4.33253 13.0053 4.14368 13.5077 4.14368H18.4925C18.9832 4.14368 19.4174 4.33253 19.7951 4.71024C20.1728 5.08793 20.3616 5.52212 20.3616 6.01281V8.52571H26.6924C27.1966 8.52571 27.6346 8.71718 28.0064 9.10011C28.3783 9.48304 28.5642 9.91462 28.5642 10.3948V25.3718C28.5642 25.8626 28.3783 26.2968 28.0064 26.6744C27.6346 27.0521 27.1975 27.241 26.6952 27.241H5.30503C4.81444 27.241 4.38029 27.0521 4.0026 26.6744C3.62489 26.2968 3.43604 25.8626 3.43604 25.3718V10.3948C3.43604 9.91462 3.62489 9.48304 4.0026 9.10011C4.38029 8.71718 4.81537 8.52571 5.30783 8.52571H11.6386ZM13.1001 8.52571H18.9001V6.01548C18.9001 5.9129 18.8574 5.81888 18.7719 5.73341C18.6864 5.64794 18.5924 5.60521 18.4898 5.60521H13.5104C13.4078 5.60521 13.3138 5.64794 13.2283 5.73341C13.1428 5.81888 13.1001 5.9129 13.1001 6.01548V8.52571ZM27.1027 19.3718H18.5783V20.2622C18.5783 20.5326 18.4895 20.7543 18.3118 20.9274C18.1342 21.1006 17.9123 21.1872 17.646 21.1872H14.4091C14.14 21.1872 13.9189 21.0992 13.7457 20.9233C13.5726 20.7474 13.486 20.5251 13.486 20.2564V19.3718H4.89754V25.3692C4.89754 25.4718 4.94028 25.5658 5.02577 25.6513C5.11124 25.7367 5.20526 25.7795 5.30783 25.7795H26.6924C26.7949 25.7795 26.889 25.7367 26.9744 25.6513C27.0599 25.5658 27.1027 25.4718 27.1027 25.3692V19.3718ZM14.9475 19.7256H17.1168V17.5564H14.9475V19.7256ZM4.89754 17.9103H13.486V17.0196C13.486 16.7409 13.5741 16.5171 13.7503 16.3482C13.9266 16.1793 14.1492 16.0949 14.4183 16.0949H17.665C17.9205 16.0949 18.1366 16.1808 18.3133 16.3525C18.4899 16.5243 18.5783 16.7487 18.5783 17.0257V17.9103H27.1027V10.3975C27.1027 10.2949 27.0599 10.2009 26.9744 10.1154C26.889 10.0299 26.7949 9.98721 26.6924 9.98721H5.30783C5.20526 9.98721 5.11124 10.0299 5.02577 10.1154C4.94028 10.2009 4.89754 10.2949 4.89754 10.3975V17.9103Z" fill="#5C5C5C"/>
</svg>
