<svg width="32" height="32" viewBox="0 0 32 32" fill="none" xmlns="http://www.w3.org/2000/svg">
<path d="M7.55427 25.776H12.7056V17.6132H19.2952V25.776H24.4465V13.0966L16.0004 6.72992L7.55427 13.0846V25.776ZM7.54407 27.2375C7.15323 27.2375 6.81363 27.0936 6.52527 26.8057C6.23694 26.5179 6.09277 26.1746 6.09277 25.776V13.0966C6.09277 12.8618 6.13972 12.6434 6.23361 12.4412C6.32752 12.239 6.4763 12.0703 6.67994 11.9351L15.1261 5.56842C15.2719 5.48039 15.4163 5.41053 15.5593 5.35882C15.7022 5.30711 15.8516 5.28125 16.0073 5.28125C16.1631 5.28125 16.3109 5.30711 16.4505 5.35882C16.5902 5.41053 16.7316 5.48039 16.8747 5.56842L25.3209 11.9351C25.5245 12.0703 25.6733 12.239 25.7672 12.4412C25.8611 12.6434 25.908 12.8618 25.908 13.0966V25.776C25.908 26.1746 25.7641 26.5179 25.4762 26.8057C25.1884 27.0936 24.8451 27.2375 24.4465 27.2375H17.8337V19.0747H14.1671V27.2375H7.54407Z" fill="#5C5C5C"/>
</svg>
