<svg width="20" height="21" viewBox="0 0 20 21" fill="none" xmlns="http://www.w3.org/2000/svg">
<path d="M19.869 10.4781C19.8698 9.79663 19.8118 9.1164 19.6956 8.44482H10.1998V12.296H15.6385C15.5272 12.9111 15.2917 13.4975 14.946 14.0197C14.6004 14.542 14.1519 14.9893 13.6275 15.3348V17.8346H16.8734C18.7739 16.0944 19.869 13.521 19.869 10.4781Z" fill="#4285F4"/>
<path d="M10.1997 20.25C12.917 20.25 15.2049 19.3639 16.8734 17.8362L13.6274 15.3364C12.724 15.9447 11.5605 16.2919 10.1997 16.2919C7.57334 16.2919 5.34414 14.5336 4.54699 12.1643H1.20319V14.7406C2.04126 16.3967 3.32635 17.7889 4.915 18.7618C6.50364 19.7347 8.3333 20.2499 10.1997 20.25Z" fill="#34A853"/>
<path d="M4.54698 12.164C4.12556 10.9224 4.12556 9.57793 4.54698 8.33639V5.76013H1.20317C0.498154 7.15333 0.130981 8.69096 0.130981 10.2502C0.130981 11.8094 0.498154 13.347 1.20317 14.7402L4.54698 12.164Z" fill="#FBBC04"/>
<path d="M10.1997 4.20879C11.6357 4.18549 13.0232 4.72429 14.0624 5.70872L16.9363 2.85469C15.1139 1.15488 12.6997 0.221659 10.1997 0.250656C8.3333 0.250741 6.50364 0.765984 4.915 1.73886C3.32635 2.71174 2.04126 4.10397 1.20319 5.7601L4.54699 8.33636C5.34414 5.96704 7.57334 4.20879 10.1997 4.20879Z" fill="#EA4335"/>
</svg>
