<svg width="20" height="21" viewBox="0 0 20 21" fill="none" xmlns="http://www.w3.org/2000/svg">
<path d="M20 10.25C20 4.72658 15.5234 0.25 10 0.25C4.47658 0.25 0 4.72658 0 10.25C0 15.2422 3.65625 19.3789 8.4375 20.1289V13.1406H5.89842V10.25H8.4375V8.04688C8.4375 5.541 9.92971 4.15625 12.2148 4.15625C13.3086 4.15625 14.4531 4.35156 14.4531 4.35156V6.8125H13.1914C11.9492 6.8125 11.5625 7.584 11.5625 8.375V10.25H14.3359L13.8926 13.1406H11.5625V20.1289C16.3438 19.3789 20 15.2422 20 10.25Z" fill="#1877F2"/>
<path d="M13.8926 13.1406L14.3359 10.25H11.5625V8.375C11.5625 7.584 11.9492 6.8125 13.1914 6.8125H14.4531V4.35156C14.4531 4.35156 13.3086 4.15625 12.2149 4.15625C9.92973 4.15625 8.43752 5.541 8.43752 8.04687V10.25H5.89844V13.1406H8.43752V20.1289C8.94727 20.209 9.46877 20.25 10 20.25C10.5313 20.25 11.0528 20.209 11.5625 20.1289V13.1406H13.8926Z" fill="white"/>
</svg>
