<svg width="24" height="25" viewBox="0 0 24 25" fill="none" xmlns="http://www.w3.org/2000/svg">
<circle cx="12" cy="12.5" r="8" fill="#4267B2" stroke="white" stroke-width="2"/>
<mask id="path-2-inside-1_17_2699" fill="white">
<path fill-rule="evenodd" clip-rule="evenodd" d="M15.3333 5.83331H13.3333C11.4924 5.83331 10 7.3257 10 9.16665V11.1666H8V13.8333H10V19.1666H12.6667V13.8333H14.6667L15.3333 11.1666H12.6667V9.16665C12.6667 8.79846 12.9651 8.49998 13.3333 8.49998H15.3333V5.83331Z"/>
</mask>
<path d="M15.3333 5.83331H25.3333C25.3333 0.310465 20.8562 -4.16669 15.3333 -4.16669L15.3333 5.83331ZM10 11.1666V21.1666C15.5228 21.1666 20 16.6895 20 11.1666L10 11.1666ZM8 11.1666V1.16665C2.47715 1.16665 -2 5.6438 -2 11.1666L8 11.1666ZM8 13.8333H-2C-2 19.3562 2.47715 23.8333 8 23.8333L8 13.8333ZM10 13.8333H20C20 8.31047 15.5228 3.83331 10 3.83331L10 13.8333ZM10 19.1666H-1.19209e-07C-1.19209e-07 24.6895 4.47715 29.1666 10 29.1666L10 19.1666ZM12.6667 19.1666V29.1666C18.1895 29.1666 22.6667 24.6895 22.6667 19.1666H12.6667ZM12.6667 13.8333V3.83331C7.14382 3.83331 2.66667 8.31047 2.66667 13.8333L12.6667 13.8333ZM14.6667 13.8333V23.8333C19.2553 23.8333 23.2552 20.7103 24.3681 16.2587L14.6667 13.8333ZM15.3333 11.1666L25.0348 13.592C25.7816 10.6046 25.1105 7.43969 23.2154 5.01252C21.3203 2.58536 18.4127 1.16665 15.3333 1.16665L15.3333 11.1666ZM12.6667 11.1666H2.66667C2.66667 16.6895 7.14382 21.1666 12.6667 21.1666L12.6667 11.1666ZM15.3333 8.49998V18.5C20.8562 18.5 25.3333 14.0228 25.3333 8.49998L15.3333 8.49998ZM15.3333 -4.16669H13.3333V15.8333H15.3333V-4.16669ZM13.3333 -4.16669C5.96954 -4.16669 -1.19209e-07 1.80285 -1.19209e-07 9.16665H20C20 12.8485 17.0152 15.8333 13.3333 15.8333L13.3333 -4.16669ZM-1.19209e-07 9.16665V11.1666H20V9.16665H-1.19209e-07ZM10 1.16665H8V21.1666H10V1.16665ZM-2 11.1666V13.8333H18V11.1666H-2ZM8 23.8333H10V3.83331H8V23.8333ZM-1.19209e-07 13.8333V19.1666H20V13.8333H-1.19209e-07ZM10 29.1666H12.6667V9.16665H10V29.1666ZM22.6667 19.1666V13.8333H2.66667V19.1666H22.6667ZM12.6667 23.8333H14.6667V3.83331H12.6667V23.8333ZM24.3681 16.2587L25.0348 13.592L5.63191 8.74129L4.96524 11.408L24.3681 16.2587ZM15.3333 1.16665H12.6667V21.1666H15.3333V1.16665ZM22.6667 11.1666V9.16665H2.66667V11.1666H22.6667ZM22.6667 9.16665C22.6667 14.3213 18.488 18.5 13.3333 18.5V-1.50002C7.44229 -1.50002 2.66667 3.27561 2.66667 9.16665H22.6667ZM13.3333 18.5H15.3333V-1.50002H13.3333V18.5ZM25.3333 8.49998V5.83331H5.33333V8.49998H25.3333Z" fill="#333333" mask="url(#path-2-inside-1_17_2699)"/>
</svg>
