<svg width="24" height="24" viewBox="0 0 24 24" fill="none" xmlns="http://www.w3.org/2000/svg">
<circle cx="12" cy="12" r="8" fill="#4267B2" stroke="white" stroke-width="2"/>
<mask id="path-2-inside-1_17_3009" fill="white">
<path fill-rule="evenodd" clip-rule="evenodd" d="M15.3333 5.33325H13.3333C11.4924 5.33325 10 6.82564 10 8.66659V10.6666H8V13.3333H10V18.6666H12.6667V13.3333H14.6667L15.3333 10.6666H12.6667V8.66659C12.6667 8.2984 12.9651 7.99992 13.3333 7.99992H15.3333V5.33325Z"/>
</mask>
<path d="M15.3333 5.33325H25.3333C25.3333 -0.189596 20.8562 -4.66675 15.3333 -4.66675L15.3333 5.33325ZM10 10.6666V20.6666C15.5228 20.6666 20 16.1894 20 10.6666L10 10.6666ZM8 10.6666V0.666585C2.47715 0.666585 -2 5.14374 -2 10.6666L8 10.6666ZM8 13.3333H-2C-2 18.8561 2.47715 23.3333 8 23.3333L8 13.3333ZM10 13.3333H20C20 7.8104 15.5228 3.33325 10 3.33325L10 13.3333ZM10 18.6666H-1.19209e-07C-1.19209e-07 24.1894 4.47715 28.6666 10 28.6666L10 18.6666ZM12.6667 18.6666V28.6666C18.1895 28.6666 22.6667 24.1894 22.6667 18.6666H12.6667ZM12.6667 13.3333V3.33325C7.14382 3.33325 2.66667 7.8104 2.66667 13.3333L12.6667 13.3333ZM14.6667 13.3333V23.3333C19.2553 23.3333 23.2552 20.2103 24.3681 15.7586L14.6667 13.3333ZM15.3333 10.6666L25.0348 13.0919C25.7816 10.1045 25.1105 6.93963 23.2154 4.51246C21.3203 2.0853 18.4127 0.666585 15.3333 0.666585L15.3333 10.6666ZM12.6667 10.6666H2.66667C2.66667 16.1894 7.14382 20.6666 12.6667 20.6666L12.6667 10.6666ZM15.3333 7.99992V17.9999C20.8562 17.9999 25.3333 13.5228 25.3333 7.99992L15.3333 7.99992ZM15.3333 -4.66675H13.3333V15.3333H15.3333V-4.66675ZM13.3333 -4.66675C5.96954 -4.66675 -1.19209e-07 1.30279 -1.19209e-07 8.66659H20C20 12.3485 17.0152 15.3333 13.3333 15.3333L13.3333 -4.66675ZM-1.19209e-07 8.66659V10.6666H20V8.66659H-1.19209e-07ZM10 0.666585H8V20.6666H10V0.666585ZM-2 10.6666V13.3333H18V10.6666H-2ZM8 23.3333H10V3.33325H8V23.3333ZM-1.19209e-07 13.3333V18.6666H20V13.3333H-1.19209e-07ZM10 28.6666H12.6667V8.66659H10V28.6666ZM22.6667 18.6666V13.3333H2.66667V18.6666H22.6667ZM12.6667 23.3333H14.6667V3.33325H12.6667V23.3333ZM24.3681 15.7586L25.0348 13.0919L5.63191 8.24123L4.96524 10.9079L24.3681 15.7586ZM15.3333 0.666585H12.6667V20.6666H15.3333V0.666585ZM22.6667 10.6666V8.66659H2.66667V10.6666H22.6667ZM22.6667 8.66659C22.6667 13.8212 18.488 17.9999 13.3333 17.9999V-2.00008C7.44229 -2.00008 2.66667 2.77555 2.66667 8.66659H22.6667ZM13.3333 17.9999H15.3333V-2.00008H13.3333V17.9999ZM25.3333 7.99992V5.33325H5.33333V7.99992H25.3333Z" fill="#333333" mask="url(#path-2-inside-1_17_3009)"/>
</svg>
