<svg width="24" height="25" viewBox="0 0 24 25" fill="none" xmlns="http://www.w3.org/2000/svg">
<circle cx="12" cy="12.5" r="8" fill="#4267B2" stroke="white" stroke-width="2"/>
<mask id="path-2-inside-1_17_2812" fill="white">
<path fill-rule="evenodd" clip-rule="evenodd" d="M15.3333 5.83325H13.3333C11.4924 5.83325 10 7.32564 10 9.16659V11.1666H8V13.8333H10V19.1666H12.6667V13.8333H14.6667L15.3333 11.1666H12.6667V9.16659C12.6667 8.7984 12.9651 8.49992 13.3333 8.49992H15.3333V5.83325Z"/>
</mask>
<path d="M15.3333 5.83325H25.3333C25.3333 0.310404 20.8562 -4.16675 15.3333 -4.16675L15.3333 5.83325ZM10 11.1666V21.1666C15.5228 21.1666 20 16.6894 20 11.1666L10 11.1666ZM8 11.1666V1.16659C2.47715 1.16659 -2 5.64374 -2 11.1666L8 11.1666ZM8 13.8333H-2C-2 19.3561 2.47715 23.8333 8 23.8333L8 13.8333ZM10 13.8333H20C20 8.3104 15.5228 3.83325 10 3.83325L10 13.8333ZM10 19.1666H-1.19209e-07C-1.19209e-07 24.6894 4.47715 29.1666 10 29.1666L10 19.1666ZM12.6667 19.1666V29.1666C18.1895 29.1666 22.6667 24.6894 22.6667 19.1666H12.6667ZM12.6667 13.8333V3.83325C7.14382 3.83325 2.66667 8.3104 2.66667 13.8333L12.6667 13.8333ZM14.6667 13.8333V23.8333C19.2553 23.8333 23.2552 20.7103 24.3681 16.2586L14.6667 13.8333ZM15.3333 11.1666L25.0348 13.5919C25.7816 10.6045 25.1105 7.43963 23.2154 5.01246C21.3203 2.5853 18.4127 1.16659 15.3333 1.16659L15.3333 11.1666ZM12.6667 11.1666H2.66667C2.66667 16.6894 7.14382 21.1666 12.6667 21.1666L12.6667 11.1666ZM15.3333 8.49992V18.4999C20.8562 18.4999 25.3333 14.0228 25.3333 8.49992L15.3333 8.49992ZM15.3333 -4.16675H13.3333V15.8333H15.3333V-4.16675ZM13.3333 -4.16675C5.96954 -4.16675 -1.19209e-07 1.80279 -1.19209e-07 9.16659H20C20 12.8485 17.0152 15.8333 13.3333 15.8333L13.3333 -4.16675ZM-1.19209e-07 9.16659V11.1666H20V9.16659H-1.19209e-07ZM10 1.16659H8V21.1666H10V1.16659ZM-2 11.1666V13.8333H18V11.1666H-2ZM8 23.8333H10V3.83325H8V23.8333ZM-1.19209e-07 13.8333V19.1666H20V13.8333H-1.19209e-07ZM10 29.1666H12.6667V9.16659H10V29.1666ZM22.6667 19.1666V13.8333H2.66667V19.1666H22.6667ZM12.6667 23.8333H14.6667V3.83325H12.6667V23.8333ZM24.3681 16.2586L25.0348 13.5919L5.63191 8.74123L4.96524 11.4079L24.3681 16.2586ZM15.3333 1.16659H12.6667V21.1666H15.3333V1.16659ZM22.6667 11.1666V9.16659H2.66667V11.1666H22.6667ZM22.6667 9.16659C22.6667 14.3212 18.488 18.4999 13.3333 18.4999V-1.50008C7.44229 -1.50008 2.66667 3.27555 2.66667 9.16659H22.6667ZM13.3333 18.4999H15.3333V-1.50008H13.3333V18.4999ZM25.3333 8.49992V5.83325H5.33333V8.49992H25.3333Z" fill="#333333" mask="url(#path-2-inside-1_17_2812)"/>
</svg>
